<?xml version="1.0" standalone="no"?>
<!DOCTYPE svg PUBLIC "-//W3C//DTD SVG 20010904//EN"
 "http://www.w3.org/TR/2001/REC-SVG-20010904/DTD/svg10.dtd">
<svg version="1.0" xmlns="http://www.w3.org/2000/svg"
 width="627.000000pt" height="627.000000pt" viewBox="0 0 627.000000 627.000000"
 preserveAspectRatio="xMidYMid meet">
<metadata>
Created by potrace 1.11, written by Peter Selinger 2001-2013
</metadata>
<g transform="translate(0.000000,627.000000) scale(0.100000,-0.100000)"
fill="#000000" stroke="none">
<path d="M3237 5864 c-4 -4 -7 -34 -7 -66 0 -66 0 -65 -76 -41 -30 9 -56 14
-59 12 -3 -3 -8 -19 -11 -36 -6 -30 -4 -31 47 -48 30 -10 58 -20 62 -22 4 -3
-8 -27 -28 -54 -19 -27 -35 -53 -35 -58 0 -10 39 -41 51 -41 3 0 21 22 40 50
19 27 37 50 41 50 3 0 23 -22 43 -50 20 -27 40 -50 43 -50 4 1 18 10 31 20
l24 20 -28 41 c-16 22 -32 42 -37 45 -22 14 -2 31 53 48 58 17 60 19 54 44
-11 44 -20 47 -78 29 -30 -9 -57 -17 -60 -17 -3 0 -7 28 -9 63 -3 58 -5 62
-28 65 -14 2 -29 0 -33 -4z"/>
<path d="M2580 5745 c0 -36 -4 -65 -8 -65 -5 0 -35 9 -66 20 l-57 19 -10 -26
c-14 -39 -6 -49 53 -68 29 -10 55 -19 57 -21 2 -2 -13 -26 -33 -54 -39 -54
-38 -67 5 -90 14 -8 23 0 50 40 19 27 39 50 44 50 6 0 24 -20 40 -45 31 -47
48 -53 78 -31 23 18 22 21 -18 76 -19 26 -35 50 -35 52 0 3 27 13 60 23 62 19
67 26 50 69 l-9 25 -57 -19 c-31 -11 -61 -20 -66 -20 -4 0 -8 29 -8 65 l0 65
-35 0 -35 0 0 -65z"/>
<path d="M3875 5748 c-2 -7 -6 -36 -7 -65 l-3 -51 -59 20 c-65 23 -79 16 -74
-32 3 -21 12 -28 57 -42 30 -10 56 -19 58 -21 2 -2 -13 -25 -32 -50 -40 -52
-42 -64 -17 -83 27 -21 35 -17 76 37 l38 51 36 -51 c20 -28 40 -51 46 -51 6 0
21 8 34 18 l23 18 -36 49 c-19 28 -35 53 -35 57 0 3 24 14 53 23 67 22 69 25
56 63 -13 36 -14 37 -60 18 -81 -33 -78 -34 -81 36 l-3 63 -33 3 c-20 2 -34
-2 -37 -10z"/>
<path d="M1967 5604 c-4 -4 -7 -34 -7 -66 0 -32 -3 -58 -7 -58 -3 0 -30 8 -60
17 -58 18 -69 14 -75 -27 -3 -22 3 -27 55 -45 31 -11 57 -24 57 -28 0 -5 -16
-31 -35 -57 l-35 -48 26 -21 c31 -25 34 -23 75 34 18 25 35 45 39 45 3 0 23
-23 44 -51 35 -48 39 -50 59 -36 33 22 31 38 -8 90 -25 33 -32 49 -23 52 109
38 113 41 110 65 -6 41 -18 45 -75 27 -30 -9 -57 -17 -60 -17 -3 0 -7 28 -9
63 -3 61 -3 62 -33 65 -17 2 -34 0 -38 -4z"/>
<path d="M4460 5405 c0 -36 -2 -65 -3 -65 -2 0 -30 9 -62 20 -32 11 -62 17
-66 13 -4 -5 -9 -21 -11 -37 -3 -27 1 -30 51 -47 30 -10 56 -21 59 -24 2 -2
-12 -28 -33 -56 l-38 -53 23 -18 c33 -27 42 -23 80 33 38 57 30 59 91 -22 25
-32 28 -33 53 -20 34 19 33 29 -10 85 -20 26 -34 49 -31 52 2 2 28 12 58 22
58 18 72 41 46 75 -12 18 -15 18 -66 -2 -30 -11 -58 -18 -63 -15 -4 3 -8 32
-8 65 l0 59 -35 0 -35 0 0 -65z"/>
<path d="M1410 5196 l0 -65 -61 21 c-64 22 -73 19 -83 -24 -6 -25 -3 -27 47
-43 28 -10 56 -21 61 -26 5 -4 -8 -31 -29 -60 l-38 -51 24 -19 c13 -10 27 -19
31 -19 4 0 25 23 45 51 l38 50 20 -23 c11 -13 30 -37 42 -53 18 -25 25 -28 39
-19 39 23 39 39 0 89 -20 27 -35 50 -33 52 2 2 28 12 58 22 51 17 54 20 52 50
0 18 -4 35 -6 38 -3 3 -33 -4 -66 -15 -33 -11 -62 -18 -65 -14 -3 3 -6 32 -6
64 l0 58 -35 0 -35 0 0 -64z"/>
<path d="M4967 5054 c-4 -4 -7 -34 -7 -66 0 -66 -1 -67 -74 -42 -51 18 -61 14
-71 -27 -6 -25 -3 -28 47 -44 29 -10 57 -21 62 -25 4 -5 -8 -30 -28 -56 -20
-26 -36 -51 -36 -55 0 -5 12 -16 26 -26 30 -19 23 -23 85 57 l26 34 37 -52
c21 -29 41 -52 46 -52 4 0 18 8 31 19 l23 19 -37 53 c-20 29 -34 56 -29 60 4
3 31 14 61 24 51 17 53 18 47 48 -3 17 -8 33 -11 36 -3 2 -29 -3 -59 -12 -29
-9 -58 -17 -64 -17 -7 0 -12 25 -14 63 -3 58 -5 62 -28 65 -14 2 -29 0 -33 -4z"/>
<path d="M957 4793 c-4 -3 -7 -33 -7 -65 0 -32 -4 -58 -10 -58 -5 0 -30 7 -56
16 -54 18 -70 14 -76 -20 -6 -31 3 -39 65 -57 26 -7 47 -17 47 -22 0 -5 -16
-31 -35 -57 l-34 -47 24 -23 c28 -26 34 -23 76 35 18 25 35 45 38 45 3 0 16
-15 29 -33 52 -74 48 -72 77 -53 14 9 25 21 25 27 0 6 -16 33 -36 60 -39 54
-41 50 38 74 34 9 44 17 46 36 5 48 -10 55 -72 35 -31 -9 -61 -14 -66 -11 -6
3 -10 33 -10 66 0 58 0 59 -28 59 -16 0 -32 -3 -35 -7z"/>
<path d="M5350 4521 c-5 -11 -10 -42 -10 -70 l0 -50 -61 21 c-67 23 -82 17
-77 -31 3 -20 13 -28 57 -43 30 -10 56 -19 58 -21 2 -2 -13 -25 -32 -50 -40
-52 -42 -64 -17 -83 28 -22 38 -17 73 36 19 27 36 49 39 50 3 0 21 -23 40 -50
19 -27 40 -50 45 -50 6 0 20 8 33 18 l22 17 -36 52 c-20 28 -33 56 -30 62 3 5
21 12 39 16 17 4 42 13 54 21 19 12 21 18 12 44 -13 36 -14 36 -81 10 -29 -11
-54 -20 -55 -20 -2 0 -3 29 -3 64 0 49 -4 65 -16 70 -27 10 -43 7 -54 -13z"/>
<path d="M650 4145 c0 -36 -2 -65 -4 -65 -2 0 -30 10 -61 22 -61 23 -72 19
-77 -26 -3 -28 0 -31 49 -46 29 -8 55 -19 59 -22 3 -4 -10 -31 -31 -59 l-38
-53 23 -18 c30 -25 43 -23 63 10 9 15 25 38 36 51 l19 24 37 -51 c40 -57 53
-62 80 -32 17 19 17 21 -11 62 -16 24 -32 48 -37 54 -5 9 11 19 50 32 55 18
58 21 56 51 0 18 -4 35 -6 38 -3 3 -33 -4 -66 -15 -33 -11 -62 -18 -65 -14 -3
3 -6 32 -6 64 l0 58 -35 0 -35 0 0 -65z"/>
<path d="M2340 3910 l0 -210 30 0 30 0 0 95 0 94 83 3 c81 3 82 3 85 30 l3 27
-83 3 -83 3 -3 53 -3 52 110 0 111 0 0 30 0 30 -140 0 -140 0 0 -210z"/>
<path d="M2865 4108 c-3 -7 -36 -100 -75 -206 -38 -106 -70 -196 -70 -198 0
-3 15 -4 33 -2 29 3 34 8 52 61 l20 58 69 -3 70 -3 21 -55 c19 -49 24 -55 53
-58 18 -2 32 -2 32 0 0 5 -125 349 -141 391 -8 19 -19 27 -36 27 -13 0 -26 -6
-28 -12z m53 -157 c11 -33 18 -62 14 -65 -8 -9 -70 -7 -76 2 -4 7 33 122 39
122 2 0 12 -27 23 -59z"/>
<path d="M3210 4090 c0 -29 2 -30 45 -30 l45 0 0 -150 0 -150 -45 0 c-43 0
-45 -1 -45 -30 l0 -30 125 0 125 0 0 29 c0 28 -2 30 -47 33 l-48 3 0 145 0
145 48 3 c46 3 48 4 45 30 l-3 27 -122 3 -123 3 0 -31z"/>
<path d="M3640 3911 l0 -211 30 0 30 0 0 85 0 85 48 0 49 0 38 -85 c35 -78 40
-85 66 -85 37 0 37 10 -5 103 l-35 75 21 19 c30 27 48 67 48 108 0 26 -9 45
-34 73 l-34 37 -111 3 -111 4 0 -211z m204 128 c33 -26 33 -53 1 -84 -20 -21
-34 -25 -85 -25 l-60 0 0 65 0 65 59 0 c44 0 65 -5 85 -21z"/>
<path d="M5607 3934 c-4 -4 -7 -33 -7 -64 0 -31 -2 -59 -6 -62 -3 -3 -32 3
-65 15 -33 11 -62 17 -65 14 -3 -3 -7 -20 -7 -38 -2 -30 1 -33 56 -51 39 -13
55 -23 50 -32 -5 -6 -21 -31 -38 -55 l-29 -43 23 -19 c13 -11 27 -19 31 -19 5
0 25 23 45 51 20 28 40 47 44 43 4 -5 22 -28 40 -51 18 -24 36 -43 41 -43 4 0
18 8 31 19 l23 18 -38 52 c-22 29 -35 56 -30 60 5 5 33 16 62 26 50 16 53 19
47 44 -10 42 -20 45 -84 23 l-60 -20 -3 66 c-3 63 -4 67 -28 70 -14 2 -29 0
-33 -4z"/>
<path d="M510 3514 c0 -74 7 -71 -87 -43 -48 15 -51 14 -59 -29 -6 -30 -5 -31
45 -46 28 -8 56 -18 61 -21 6 -4 -4 -27 -25 -55 -19 -26 -35 -52 -35 -58 0 -5
12 -17 26 -27 29 -18 25 -21 76 52 13 18 26 33 30 33 3 0 23 -22 43 -50 29
-40 40 -48 53 -40 48 27 47 26 7 84 -21 31 -36 58 -34 59 2 2 29 12 59 23 48
17 55 23 52 44 -4 41 -17 45 -75 27 -30 -9 -57 -17 -60 -17 -3 0 -7 28 -9 63
-3 62 -3 62 -35 65 l-33 3 0 -67z"/>
<path d="M2330 3090 l0 -210 83 0 c99 1 139 18 180 77 41 58 49 158 18 228
-41 92 -81 115 -202 115 l-79 0 0 -210z m169 136 c47 -25 66 -63 66 -136 0
-100 -45 -150 -135 -150 l-40 0 0 150 0 150 40 0 c23 0 54 -7 69 -14z"/>
<path d="M2865 3288 c-3 -7 -36 -100 -75 -206 -38 -107 -70 -196 -70 -199 0
-2 15 -3 33 -1 29 3 34 8 52 61 l20 58 69 -3 70 -3 20 -57 c20 -55 23 -58 53
-58 18 0 33 1 33 3 0 1 -34 94 -75 206 -41 112 -75 206 -75 208 0 10 -51 1
-55 -9z m53 -157 c11 -33 18 -62 14 -65 -3 -3 -23 -6 -45 -6 -27 0 -38 4 -35
13 3 6 13 36 22 65 10 28 19 52 21 52 2 0 12 -27 23 -59z"/>
<path d="M3170 3270 l0 -30 65 0 65 0 0 -180 0 -180 30 0 30 0 2 178 3 177 68
3 c68 3 68 3 65 30 l-3 27 -162 3 -163 2 0 -30z"/>
<path d="M3745 3288 c-3 -7 -36 -100 -75 -206 -38 -107 -70 -196 -70 -199 0
-2 15 -3 33 -1 29 3 34 8 52 61 l20 58 69 -3 69 -3 20 -57 c20 -55 23 -58 55
-58 28 0 33 3 27 18 -6 14 -102 279 -137 375 -7 19 -17 27 -34 27 -14 0 -27
-6 -29 -12z m58 -170 c8 -25 13 -49 9 -52 -6 -6 -82 -8 -82 -2 0 3 21 65 35
105 8 20 20 4 38 -51z"/>
<path d="M5712 3258 c-7 -7 -12 -37 -12 -69 l0 -58 -61 21 c-67 23 -82 17 -77
-31 3 -20 13 -28 61 -44 l57 -19 -35 -48 c-40 -55 -42 -61 -17 -83 28 -25 36
-22 73 33 19 27 37 50 40 50 3 0 21 -22 40 -50 19 -27 39 -50 44 -50 6 0 21 9
34 19 l23 18 -37 52 c-21 29 -34 56 -29 60 5 5 27 14 49 21 54 17 63 26 57 56
-6 35 -19 37 -84 15 l-57 -20 -3 67 c-3 63 -4 67 -28 70 -14 2 -31 -3 -38 -10z"/>
<path d="M510 2865 c0 -36 -4 -65 -10 -65 -5 0 -33 9 -61 20 -57 23 -66 20
-71 -24 -3 -28 0 -31 55 -49 31 -11 57 -23 57 -27 0 -4 -16 -28 -36 -54 -35
-45 -35 -48 -18 -67 27 -30 46 -23 84 32 l35 51 20 -27 c55 -76 61 -81 89 -66
14 8 26 19 26 24 0 5 -16 32 -35 58 -19 27 -35 51 -35 52 0 2 27 12 60 22 63
19 72 33 50 75 -10 18 -11 18 -67 -1 -31 -10 -60 -19 -65 -19 -4 0 -8 29 -8
65 l0 65 -35 0 -35 0 0 -65z"/>
<path d="M5607 2614 c-4 -4 -7 -34 -7 -66 0 -36 -4 -58 -11 -58 -6 0 -33 8
-60 17 -53 19 -63 15 -74 -29 -7 -26 -5 -28 54 -44 34 -10 61 -21 61 -26 0 -5
-16 -30 -35 -55 -19 -25 -35 -49 -35 -53 0 -7 44 -40 54 -40 2 0 21 23 41 50
20 28 40 50 44 50 4 0 14 -12 24 -27 9 -16 25 -39 35 -52 18 -23 20 -23 45 -6
15 9 27 21 27 26 0 5 -16 31 -35 58 -20 27 -32 51 -28 54 4 2 32 12 62 22 51
17 53 18 47 48 -3 17 -8 33 -11 36 -3 2 -29 -3 -59 -12 -29 -9 -58 -17 -64
-17 -7 0 -12 25 -14 63 -3 58 -5 62 -28 65 -14 2 -29 0 -33 -4z"/>
<path d="M1731 2467 c-40 -20 -66 -64 -65 -109 2 -56 41 -90 133 -118 90 -26
112 -59 71 -100 -27 -27 -103 -27 -147 -1 -30 19 -32 19 -47 2 -22 -24 -20
-36 9 -55 44 -29 118 -41 168 -26 68 18 92 49 92 117 0 48 -4 58 -28 79 -15
13 -53 31 -85 40 -75 21 -102 39 -102 68 0 52 72 72 148 41 34 -15 38 -15 49
1 21 29 15 41 -27 58 -48 19 -135 21 -169 3z"/>
<path d="M2164 2461 c-149 -91 -109 -378 55 -406 61 -10 128 25 161 85 21 38
25 58 25 130 0 72 -4 92 -25 130 -15 28 -39 52 -60 62 -46 24 -117 23 -156 -1z
m128 -52 c28 -15 58 -86 58 -139 0 -53 -30 -124 -58 -139 -26 -14 -78 -14
-104 0 -29 16 -48 70 -48 139 0 66 17 110 52 134 26 19 71 21 100 5z"/>
<path d="M2625 2461 c-63 -39 -94 -99 -95 -186 0 -106 38 -178 114 -209 43
-17 54 -18 94 -7 84 22 129 75 85 100 -13 7 -24 3 -46 -15 -31 -26 -92 -33
-129 -13 -27 15 -58 85 -58 137 0 114 83 182 170 137 17 -9 30 -20 30 -25 0
-16 26 -11 43 8 16 17 15 20 -11 44 -15 14 -37 31 -49 37 -34 17 -114 13 -148
-8z"/>
<path d="M2990 2450 c0 -29 2 -30 45 -30 l45 0 0 -150 0 -150 -45 0 c-43 0
-45 -1 -45 -30 l0 -30 125 0 125 0 0 29 c0 28 -2 30 -47 33 l-48 3 0 145 0
145 48 3 c46 3 48 4 45 30 l-3 27 -122 3 -123 3 0 -31z"/>
<path d="M3430 2270 l0 -210 135 0 135 0 0 30 0 30 -105 0 -105 0 0 65 0 65
75 0 75 0 0 30 0 30 -76 0 -75 0 3 53 3 52 103 3 102 3 0 29 0 30 -135 0 -135
0 0 -210z"/>
<path d="M3830 2451 c0 -30 0 -30 63 -33 l62 -3 3 -177 2 -178 30 0 30 0 2
178 3 177 68 3 c68 3 68 3 65 30 l-3 27 -162 3 -163 2 0 -29z"/>
<path d="M4263 2467 c3 -7 35 -59 71 -115 l66 -102 0 -95 0 -95 30 0 30 0 0
88 0 89 75 117 c41 65 75 120 75 122 0 3 -16 4 -37 2 -33 -3 -40 -9 -83 -77
-25 -41 -50 -76 -56 -78 -5 -2 -31 33 -58 77 -46 75 -50 80 -83 80 -25 0 -34
-4 -30 -13z"/>
<path d="M667 2293 c-4 -3 -7 -33 -7 -65 0 -32 -3 -58 -7 -58 -3 0 -30 8 -60
17 -58 18 -71 14 -75 -27 -3 -22 4 -27 55 -45 52 -18 70 -36 49 -49 -5 -3 -21
-23 -37 -45 l-28 -41 24 -20 c13 -10 27 -19 31 -20 3 0 23 23 43 50 20 28 40
50 43 50 4 0 17 -15 30 -33 51 -73 47 -70 76 -52 14 10 26 22 26 27 0 6 -16
32 -35 58 -20 27 -32 50 -28 53 4 2 32 12 61 21 42 14 52 22 52 39 0 47 -14
53 -73 34 -29 -9 -59 -17 -65 -17 -8 0 -12 22 -12 65 0 65 0 65 -28 65 -16 0
-32 -3 -35 -7z"/>
<path d="M5362 2008 c-7 -7 -12 -38 -12 -69 l0 -57 -61 21 c-67 24 -82 17 -77
-32 2 -19 12 -27 48 -39 25 -7 51 -15 58 -18 10 -3 3 -18 -22 -53 -41 -56 -43
-62 -18 -84 27 -25 33 -22 72 33 19 27 38 50 41 50 3 0 21 -22 40 -50 19 -27
38 -50 43 -50 6 0 20 9 32 21 l22 21 -35 50 c-20 28 -32 53 -27 57 5 5 27 14
49 21 59 18 65 26 53 61 -12 34 -10 34 -81 10 l-57 -20 0 63 c0 49 -4 65 -16
70 -24 9 -39 7 -52 -6z"/>
<path d="M973 1713 c-9 -3 -13 -27 -13 -68 l0 -64 -57 20 c-31 10 -59 19 -64
19 -5 0 -29 -53 -29 -66 0 -1 24 -10 53 -19 28 -10 56 -21 60 -25 5 -4 -7 -32
-27 -61 l-36 -54 22 -17 c13 -10 28 -18 33 -18 6 0 25 23 44 50 19 28 37 50
40 50 3 0 21 -23 40 -50 37 -54 49 -60 74 -32 22 25 22 24 -18 81 l-36 49 58
19 c48 16 58 24 61 44 5 48 -10 54 -77 31 l-61 -21 0 58 c0 72 -20 94 -67 74z"/>
<path d="M4980 1431 c0 -33 -4 -62 -9 -65 -5 -3 -34 3 -65 14 -55 18 -56 18
-66 0 -22 -41 -13 -55 51 -76 l60 -19 -35 -50 c-41 -57 -44 -70 -17 -85 31
-16 38 -13 71 35 17 25 35 45 40 45 5 0 23 -20 41 -45 36 -50 46 -53 79 -27
l21 17 -35 47 c-20 26 -36 51 -36 57 0 5 26 18 58 29 49 17 57 22 54 42 -5 46
-19 51 -75 30 -29 -11 -55 -20 -59 -20 -4 0 -8 28 -10 63 -3 62 -3 62 -35 65
l-33 3 0 -60z"/>
<path d="M1430 1185 c0 -36 -4 -65 -8 -65 -5 0 -34 9 -65 19 -56 19 -57 19
-67 1 -22 -42 -13 -56 50 -75 33 -10 60 -20 60 -22 0 -1 -16 -25 -35 -52 -40
-56 -41 -59 -17 -77 28 -21 39 -17 73 31 18 25 36 45 40 45 5 0 23 -20 41 -45
36 -48 56 -55 81 -27 16 17 15 22 -18 68 -19 27 -35 52 -35 56 0 4 26 15 58
25 54 17 57 20 54 48 -2 17 -7 33 -11 38 -4 4 -34 -2 -66 -13 -32 -11 -60 -20
-62 -20 -1 0 -3 29 -3 65 l0 65 -35 0 -35 0 0 -65z"/>
<path d="M4487 1063 c-4 -3 -7 -33 -7 -66 0 -52 -2 -59 -17 -54 -81 23 -113
30 -117 26 -2 -2 -7 -18 -10 -36 -7 -32 -7 -32 53 -49 34 -9 61 -19 61 -23 0
-3 -16 -29 -36 -58 l-36 -53 23 -20 c13 -10 27 -19 31 -20 3 0 22 22 42 50 20
28 40 50 44 50 4 0 15 -12 25 -27 9 -16 25 -39 35 -52 18 -23 20 -23 45 -6 15
9 27 21 27 26 0 5 -16 31 -35 58 -21 29 -32 52 -26 56 6 3 34 13 62 21 50 15
51 16 45 46 -3 18 -8 34 -11 37 -3 2 -29 -3 -59 -12 -77 -25 -76 -25 -76 48 0
65 0 65 -28 65 -16 0 -32 -3 -35 -7z"/>
<path d="M1987 903 c-4 -3 -7 -33 -7 -65 0 -32 -2 -58 -3 -58 -2 0 -30 9 -62
20 -32 11 -59 20 -61 20 -7 0 -23 -65 -17 -71 5 -3 32 -14 61 -24 28 -9 52
-20 52 -23 0 -4 -16 -30 -36 -57 l-35 -50 22 -17 c31 -26 40 -23 81 33 l36 51
38 -51 c41 -54 49 -58 77 -37 24 18 22 32 -11 75 -47 60 -47 58 19 77 l61 17
-6 35 c-3 19 -7 37 -10 39 -2 3 -30 -5 -61 -16 -31 -12 -61 -19 -66 -16 -5 4
-9 33 -9 66 0 58 0 59 -28 59 -16 0 -32 -3 -35 -7z"/>
<path d="M3900 711 c0 -33 -4 -62 -9 -65 -5 -3 -34 3 -65 14 -55 18 -56 18
-66 0 -22 -41 -13 -55 51 -76 l60 -19 -35 -50 c-41 -57 -42 -63 -18 -81 28
-21 39 -17 73 31 18 25 36 45 41 45 5 0 23 -20 40 -45 35 -50 45 -53 77 -27
l22 17 -35 50 c-20 27 -36 53 -36 57 0 3 24 14 53 23 28 10 55 21 60 24 6 6
-10 71 -17 71 -2 0 -29 -9 -61 -20 -32 -11 -59 -20 -61 -20 -2 0 -4 28 -6 63
-3 62 -3 62 -35 65 l-33 3 0 -60z"/>
<path d="M2607 714 c-4 -4 -7 -34 -7 -66 0 -66 -1 -67 -74 -42 -51 18 -61 14
-71 -27 -6 -25 -3 -28 47 -44 29 -10 57 -21 62 -25 4 -5 -8 -30 -28 -56 -20
-26 -36 -50 -36 -54 0 -7 44 -40 54 -40 2 0 21 23 41 50 20 28 40 50 44 50 4
0 14 -12 24 -27 9 -16 25 -39 36 -52 18 -24 20 -24 45 -8 14 10 26 22 26 28 0
6 -16 31 -35 56 -20 26 -32 50 -28 54 5 3 32 14 62 24 51 17 53 18 47 48 -3
17 -8 33 -11 36 -3 2 -29 -3 -59 -12 -29 -9 -58 -17 -64 -17 -7 0 -12 25 -14
63 -3 58 -5 62 -28 65 -14 2 -29 0 -33 -4z"/>
<path d="M3257 664 c-4 -4 -7 -34 -7 -66 0 -66 0 -65 -76 -41 -30 9 -56 14
-59 12 -3 -3 -8 -19 -11 -36 -6 -30 -4 -31 47 -48 30 -10 57 -20 61 -24 4 -3
-9 -30 -30 -60 l-37 -53 24 -19 c13 -10 26 -19 30 -19 4 0 24 23 46 52 l38 52
26 -34 c61 -79 54 -75 84 -55 15 9 27 21 27 25 0 4 -16 28 -36 54 -20 26 -32
51 -28 56 5 4 33 15 62 25 50 16 53 19 47 44 -10 41 -20 45 -71 27 -72 -24
-73 -24 -76 47 -3 58 -5 62 -28 65 -14 2 -29 0 -33 -4z"/>
</g>
</svg>
